<svg width="310" height="207" viewBox="0 0 310 207" fill="none" xmlns="http://www.w3.org/2000/svg">
<g clip-path="url(#clip0)">
<path d="M157.23 168.14L236.63 172.74L237.14 188.83C234.27 198.76 228.09 201.87 221.46 201.87C210.38 201.87 198.07 193.17 198.07 193.17C198.07 193.17 197.24 201.79 180.17 201.79C174.11 201.79 166.01 200.7 155.18 197.76C143.21 194.51 134.96 193.35 129.28 193.35C115.34 193.35 116.89 200.31 116.89 200.31L105.91 200.05C102.34 190.09 108.97 184.22 108.97 184.22L157.23 168.14ZM157.23 164.14C156.8 164.14 156.37 164.21 155.97 164.35L107.71 180.44C107.2 180.61 106.73 180.88 106.32 181.24C105.97 181.55 97.7 189.05 102.14 201.42C102.7 202.98 104.16 204.03 105.81 204.07L116.79 204.33C116.82 204.33 116.85 204.33 116.88 204.33C118.08 204.33 119.21 203.8 119.97 202.87C120.7 201.98 121.01 200.83 120.83 199.7C120.84 199.61 120.88 199.42 121.12 199.18C121.53 198.76 123.34 197.37 129.28 197.37C135.35 197.37 143.71 198.81 154.13 201.64C164.31 204.41 173.07 205.81 180.17 205.81C191.53 205.81 197.01 202.19 199.64 198.89C204.49 201.69 213.14 205.89 221.46 205.89C228.27 205.89 237.18 203.13 240.98 189.96C241.1 189.56 241.15 189.14 241.13 188.72L240.62 172.63C240.55 170.56 238.92 168.88 236.85 168.76L157.45 164.16C157.39 164.15 157.31 164.14 157.23 164.14Z" fill="#F26430"/>
<path d="M164.38 201.08C164.38 201.08 150.37 189.47 157.52 168.14" stroke="#F26430" stroke-width="4" stroke-miterlimit="10" stroke-linecap="round" stroke-linejoin="round"/>
<path d="M191.85 180.84C191.85 187.9 185.38 193.62 177.41 193.62C169.43 193.62 162.97 187.9 162.97 180.84C162.97 173.78 191.85 173.78 191.85 180.84Z" stroke="#F26430" stroke-width="4" stroke-miterlimit="10" stroke-linecap="round" stroke-linejoin="round"/>
<path d="M231.93 182.4C231.93 189.16 226.18 194.64 219.09 194.64C212 194.64 206.25 189.16 206.25 182.4C206.26 175.64 231.93 175.64 231.93 182.4Z" stroke="#F26430" stroke-width="4" stroke-miterlimit="10" stroke-linecap="round" stroke-linejoin="round"/>
<path d="M127.11 167.12L119.71 67.55C119.71 67.55 120.22 59.12 128.39 58.1C136.56 57.08 168.48 58.1 168.48 58.1" stroke="#F26430" stroke-width="4" stroke-miterlimit="10" stroke-linecap="round" stroke-linejoin="round"/>
<path d="M208.98 167.04L216.38 67.47C216.38 67.47 215.87 59.04 207.7 58.02C199.53 57 167.61 58.02 167.61 58.02" stroke="#F26430" stroke-width="4" stroke-miterlimit="10" stroke-linecap="round" stroke-linejoin="round"/>
<path d="M138.68 78.53L145.32 158.19" stroke="#F26430" stroke-width="4" stroke-miterlimit="10" stroke-linecap="round" stroke-linejoin="round"/>
<path d="M199.45 78.53L192.81 158.19" stroke="#F26430" stroke-width="4" stroke-miterlimit="10" stroke-linecap="round" stroke-linejoin="round"/>
<path d="M169.42 78.39L170.07 158.32" stroke="#F26430" stroke-width="4" stroke-miterlimit="10" stroke-linecap="round" stroke-linejoin="round"/>
<path d="M119.62 46.87C119.62 46.87 125.41 39.72 127.28 40.57C129.15 41.42 130.17 19.29 147.54 27.46C147.54 27.46 164.56 14.18 171.71 33.42C171.71 33.42 188.9 28.82 191.62 46.87" stroke="#F26430" stroke-width="4" stroke-miterlimit="10" stroke-linecap="round" stroke-linejoin="round"/>
<path d="M220.21 49.93C220.21 49.93 220.21 42.27 214.25 40.74C214.25 40.74 220.89 23.38 199.44 20.65C199.44 20.65 193.82 -5.05 171.53 11.12" stroke="#F26430" stroke-width="4" stroke-miterlimit="10" stroke-linecap="round" stroke-linejoin="round"/>
<path d="M161.15 5.16C161.15 5.16 146.51 -5.22 140.38 11.63C140.38 11.63 129.49 8.4 130.17 19.46" stroke="#F26430" stroke-width="4" stroke-miterlimit="10" stroke-linecap="round" stroke-linejoin="round"/>
<path d="M48.64 95.21C48.64 95.21 50.85 85.17 60.04 80.57" stroke="#F26430" stroke-width="4" stroke-miterlimit="10" stroke-linecap="round" stroke-linejoin="round"/>
<path d="M102.94 95.55C102.94 95.55 98.34 78.7 80.47 76.32" stroke="#F26430" stroke-width="4" stroke-miterlimit="10" stroke-linecap="round" stroke-linejoin="round"/>
<path d="M37.5699 47.89L61.3999 54.19L74.8499 92.14" stroke="#F26430" stroke-width="4" stroke-miterlimit="10" stroke-linecap="round" stroke-linejoin="round"/>
<path d="M38.6 105.76L112.64 105.93" stroke="#F26430" stroke-width="4" stroke-miterlimit="10" stroke-linecap="round" stroke-linejoin="round"/>
<path d="M98.34 187.97L98.17 195.97C98.17 195.97 98.51 200.74 92.04 202.78C85.57 204.82 60.04 202.95 60.04 202.95C60.04 202.95 55.44 201.59 53.4 195.29C51.36 188.99 46.76 117.67 46.76 117.67L105.14 118.01L100.03 171.63" stroke="#F26430" stroke-width="4" stroke-miterlimit="10" stroke-linecap="round" stroke-linejoin="round"/>
<path d="M61.0601 130.1L61.5701 139.8" stroke="#F26430" stroke-width="4" stroke-miterlimit="10" stroke-linecap="round" stroke-linejoin="round"/>
<path d="M62.6 155.12L65.32 188.48" stroke="#F26430" stroke-width="4" stroke-miterlimit="10" stroke-linecap="round" stroke-linejoin="round"/>
<path d="M43.87 180.48L5.91003 144.91L13.06 137.25C13.06 137.25 24.29 141.51 20.55 127.89L27.19 121.59L38.25 131.29" stroke="#F26430" stroke-width="4" stroke-miterlimit="10" stroke-linecap="round" stroke-linejoin="round"/>
<path d="M30.4301 145.42L40.9801 155.97" stroke="#F26430" stroke-width="4" stroke-miterlimit="10" stroke-linecap="round" stroke-linejoin="round"/>
<path d="M8.64 161.59L7.62 164.99C7.62 164.99 16.3 171.97 4.56 176.39L2 186.27L43.36 197.33" stroke="#F26430" stroke-width="4" stroke-miterlimit="10" stroke-linecap="round" stroke-linejoin="round"/>
<path d="M23.96 175.38L30.6 176.74" stroke="#F26430" stroke-width="4" stroke-miterlimit="10" stroke-linecap="round" stroke-linejoin="round"/>
<path d="M229.74 75.46L294.59 58.61C294.59 58.61 298.16 56.4 299.02 60.14C299.87 63.88 302.59 72.05 302.59 72.05C302.59 72.05 304.97 75.11 300.55 76.99C296.12 78.86 228.55 96.39 228.55 96.39" stroke="#F26430" stroke-width="4" stroke-miterlimit="10" stroke-linecap="round" stroke-linejoin="round"/>
<path d="M228.72 87.89L237.91 93.67" stroke="#F26430" stroke-width="4" stroke-miterlimit="10" stroke-linecap="round" stroke-linejoin="round"/>
<path d="M237.23 73.42L258 88.74" stroke="#F26430" stroke-width="4" stroke-miterlimit="10" stroke-linecap="round" stroke-linejoin="round"/>
<path d="M258.68 67.97L279.96 83.12" stroke="#F26430" stroke-width="4" stroke-miterlimit="10" stroke-linecap="round" stroke-linejoin="round"/>
<path d="M280.81 62.36L301.4 76.31" stroke="#F26430" stroke-width="4" stroke-miterlimit="10" stroke-linecap="round" stroke-linejoin="round"/>
<path d="M225.49 109.67L304.47 110.35C304.47 110.35 307.53 109.84 307.19 112.73C306.85 115.62 307.36 126.18 307.36 126.18C307.36 126.18 307.53 128.56 305.49 128.73C303.45 128.9 225.66 129.07 225.66 129.07" stroke="#F26430" stroke-width="4" stroke-miterlimit="10" stroke-linecap="round" stroke-linejoin="round"/>
<path d="M226.85 123.12L236.55 110.36" stroke="#F26430" stroke-width="4" stroke-miterlimit="10" stroke-linecap="round" stroke-linejoin="round"/>
<path d="M243.19 128.06L259.53 110.02" stroke="#F26430" stroke-width="4" stroke-miterlimit="10" stroke-linecap="round" stroke-linejoin="round"/>
<path d="M265.66 128.23L281.15 110.19" stroke="#F26430" stroke-width="4" stroke-miterlimit="10" stroke-linecap="round" stroke-linejoin="round"/>
<path d="M288.81 128.06L304.47 110.36" stroke="#F26430" stroke-width="4" stroke-miterlimit="10" stroke-linecap="round" stroke-linejoin="round"/>
<path d="M301.06 129.08L301.57 195.29C301.57 195.29 301.91 199.55 294.76 202.44C287.61 205.33 243.02 203.8 243.02 203.8" stroke="#F26430" stroke-width="4" stroke-miterlimit="10" stroke-linecap="round" stroke-linejoin="round"/>
<path d="M249.49 184.23L286.94 184.74" stroke="#F26430" stroke-width="4" stroke-miterlimit="10" stroke-linecap="round" stroke-linejoin="round"/>
<path d="M249.15 169.08L286.09 169.59" stroke="#F26430" stroke-width="4" stroke-miterlimit="10" stroke-linecap="round" stroke-linejoin="round"/>
<path d="M222.6 144.74L256.64 145.1L287.11 145.42" stroke="#F26430" stroke-width="4" stroke-miterlimit="10" stroke-linecap="round" stroke-linejoin="round"/>
<path d="M256.81 155.78L256.47 145.57" stroke="#F26430" stroke-width="4" stroke-miterlimit="10" stroke-linecap="round" stroke-linejoin="round"/>
</g>
<defs>
<clipPath id="clip0">
<rect width="309.37" height="206.21" fill="white"/>
</clipPath>
</defs>
</svg>
